<svg width="20" height="20" viewBox="0 0 20 20" fill="none" xmlns="http://www.w3.org/2000/svg">
<g clip-path="url(#clip0_1_12)">
<path d="M2.5 17V3C2.5 2.86739 2.55268 2.74021 2.64645 2.64645C2.74021 2.55268 2.86739 2.5 3 2.5H17C17.1326 2.5 17.2598 2.55268 17.3536 2.64645C17.4473 2.74021 17.5 2.86739 17.5 3V17C17.5 17.1326 17.4473 17.2598 17.3536 17.3536C17.2598 17.4473 17.1326 17.5 17 17.5H3C2.86739 17.5 2.74021 17.4473 2.64645 17.3536C2.55268 17.2598 2.5 17.1326 2.5 17Z" stroke="white" stroke-width="1.875"/>
<path d="M2.49999 3.33334C2.721 3.33334 2.93297 3.24554 3.08925 3.08926C3.24553 2.93298 3.33332 2.72102 3.33332 2.50001C3.33332 2.27899 3.24553 2.06703 3.08925 1.91075C2.93297 1.75447 2.721 1.66667 2.49999 1.66667C2.27898 1.66667 2.06701 1.75447 1.91073 1.91075C1.75445 2.06703 1.66666 2.27899 1.66666 2.50001C1.66666 2.72102 1.75445 2.93298 1.91073 3.08926C2.06701 3.24554 2.27898 3.33334 2.49999 3.33334ZM17.5 18.3333C17.721 18.3333 17.933 18.2455 18.0892 18.0893C18.2455 17.933 18.3333 17.721 18.3333 17.5C18.3333 17.279 18.2455 17.067 18.0892 16.9107C17.933 16.7545 17.721 16.6667 17.5 16.6667C17.279 16.6667 17.067 16.7545 16.9107 16.9107C16.7545 17.067 16.6667 17.279 16.6667 17.5C16.6667 17.721 16.7545 17.933 16.9107 18.0893C17.067 18.2455 17.279 18.3333 17.5 18.3333Z" fill="white" stroke="white" stroke-width="1.875" stroke-linecap="round" stroke-linejoin="round"/>
</g>
<defs>
<clipPath id="clip0_1_12">
<rect width="20" height="20" fill="white"/>
</clipPath>
</defs>
</svg>
