<svg width="60" height="60" viewBox="0 0 60 60" fill="none" xmlns="http://www.w3.org/2000/svg">
<path fill-rule="evenodd" clip-rule="evenodd" d="M5.625 13.125C5.625 11.1359 6.41518 9.22822 7.8217 7.8217C9.22822 6.41518 11.1359 5.625 13.125 5.625H18.75C20.7391 5.625 22.6468 6.41518 24.0533 7.8217C25.4598 9.22822 26.25 11.1359 26.25 13.125V46.875C26.25 48.8641 25.4598 50.7718 24.0533 52.1783C22.6468 53.5848 20.7391 54.375 18.75 54.375H13.125C11.1359 54.375 9.22822 53.5848 7.8217 52.1783C6.41518 50.7718 5.625 48.8641 5.625 46.875V13.125ZM33.75 13.125C33.75 11.1359 34.5402 9.22822 35.9467 7.8217C37.3532 6.41518 39.2609 5.625 41.25 5.625H46.875C48.8641 5.625 50.7718 6.41518 52.1783 7.8217C53.5848 9.22822 54.375 11.1359 54.375 13.125V46.875C54.375 48.8641 53.5848 50.7718 52.1783 52.1783C50.7718 53.5848 48.8641 54.375 46.875 54.375H41.25C39.2609 54.375 37.3532 53.5848 35.9467 52.1783C34.5402 50.7718 33.75 48.8641 33.75 46.875V13.125Z" fill="white"/>
</svg>
