<svg width="20" height="20" viewBox="0 0 20 20" fill="none" xmlns="http://www.w3.org/2000/svg">
<path d="M13.8117 16L10.53 12.7183L9.5275 13.72C8.5025 14.7467 7.98917 15.2592 7.4375 15.1383C6.88583 15.0167 6.635 14.3358 6.13333 12.975L4.46083 8.43333C3.46 5.71749 2.95833 4.35999 3.65833 3.65999C4.35833 2.95999 5.71667 3.45999 8.43333 4.46166L12.975 6.13333C14.3358 6.63499 15.0167 6.88583 15.1383 7.43749C15.2592 7.98916 14.7467 8.50166 13.72 9.52749L12.7183 10.53L16 13.8117C16.34 14.1517 16.51 14.3217 16.5883 14.5117C16.6925 14.7642 16.6925 15.0475 16.5883 15.3008C16.51 15.49 16.34 15.66 16 16C15.66 16.34 15.49 16.51 15.3 16.5883C15.0473 16.6929 14.7635 16.6929 14.5108 16.5883C14.3217 16.51 14.1525 16.34 13.8117 16Z" stroke="white" stroke-width="1.875" stroke-linecap="round" stroke-linejoin="round"/>
</svg>
