<svg width="20" height="20" viewBox="0 0 20 20" fill="none" xmlns="http://www.w3.org/2000/svg">
<path d="M14.7167 6.66666L10 1.95833L5.28334 6.66666C4.03904 7.91492 3.33818 9.60416 3.33334 11.3667C3.33334 13.0333 3.98334 14.7917 5.28334 16.0917C5.90194 16.7125 6.63701 17.2051 7.44641 17.5412C8.25581 17.8773 9.1236 18.0504 10 18.0504C10.8764 18.0504 11.7442 17.8773 12.5536 17.5412C13.363 17.2051 14.0981 16.7125 14.7167 16.0917C16.0167 14.7917 16.6667 13.0333 16.6667 11.3667C16.6667 9.7 16.0167 7.96666 14.7167 6.66666ZM5.00001 11.6667C5.00834 9.99999 5.51668 8.94166 6.46668 8L10 4.39166L13.5333 8.04166C14.4833 8.97499 14.9917 9.99999 15 11.6667H5.00001Z" fill="white"/>
</svg>
